M48
; DRILL file {KiCad (5.1.5-0-10_14)} date Saturday, 21 March 2020 at 12:37:57 pm
; FORMAT={-:-/ absolute / metric / decimal}
; #@! TF.CreationDate,2020-03-21T12:37:57+11:00
; #@! TF.GenerationSoftware,Kicad,Pcbnew,(5.1.5-0-10_14)
; #@! TF.FileFunction,Plated,1,2,PTH
FMAT,2
METRIC
T1C0.965
T2C1.200
%
G90
G05
T1
X52.197Y-43.942
X52.197Y-46.482
X54.737Y-43.942
X54.737Y-46.482
X57.277Y-43.942
X57.277Y-46.482
X59.817Y-43.942
X59.817Y-46.482
X62.357Y-43.942
X62.357Y-46.482
X64.897Y-43.942
X64.897Y-46.482
X67.437Y-43.942
X67.437Y-46.482
X69.977Y-43.942
X69.977Y-46.482
X72.517Y-43.942
X72.517Y-46.482
X75.057Y-43.942
X75.057Y-46.482
X77.597Y-43.942
X77.597Y-46.482
X80.137Y-43.942
X80.137Y-46.482
X82.677Y-43.942
X82.677Y-46.482
X85.217Y-43.942
X85.217Y-46.482
X87.757Y-43.942
X87.757Y-46.482
X90.297Y-43.942
X90.297Y-46.482
X92.837Y-43.942
X92.837Y-46.482
X52.197Y-35.941
X52.197Y-38.481
X54.737Y-35.941
X54.737Y-38.481
X57.277Y-35.941
X57.277Y-38.481
X59.817Y-35.941
X59.817Y-38.481
X62.357Y-35.941
X62.357Y-38.481
X64.897Y-35.941
X64.897Y-38.481
X67.437Y-35.941
X67.437Y-38.481
X69.977Y-35.941
X69.977Y-38.481
X72.517Y-35.941
X72.517Y-38.481
X75.057Y-35.941
X75.057Y-38.481
X77.597Y-35.941
X77.597Y-38.481
X80.137Y-35.941
X80.137Y-38.481
X82.677Y-35.941
X82.677Y-38.481
X85.217Y-35.941
X85.217Y-38.481
X87.757Y-35.941
X87.757Y-38.481
X90.297Y-35.941
X90.297Y-38.481
X92.837Y-35.941
X92.837Y-38.481
T2
X42.164Y-37.846
X42.164Y-40.386
X42.164Y-42.926
X42.164Y-45.466
T0
M30
