G04 #@! TF.GenerationSoftware,KiCad,Pcbnew,(5.1.5-0-10_14)*
G04 #@! TF.CreationDate,2020-03-21T12:38:00+11:00*
G04 #@! TF.ProjectId,Internal FDD Adapter,496e7465-726e-4616-9c20-464444204164,rev?*
G04 #@! TF.SameCoordinates,Original*
G04 #@! TF.FileFunction,Copper,L2,Bot*
G04 #@! TF.FilePolarity,Positive*
%FSLAX46Y46*%
G04 Gerber Fmt 4.6, Leading zero omitted, Abs format (unit mm)*
G04 Created by KiCad (PCBNEW (5.1.5-0-10_14)) date 2020-03-21 12:38:00*
%MOMM*%
%LPD*%
G04 APERTURE LIST*
%ADD10C,1.524000*%
%ADD11R,1.524000X1.524000*%
%ADD12O,2.200000X1.740000*%
%ADD13C,0.100000*%
%ADD14C,0.250000*%
%ADD15C,0.254000*%
G04 APERTURE END LIST*
D10*
X52197000Y-38481000D03*
X52197000Y-35941000D03*
X54737000Y-38481000D03*
X54737000Y-35941000D03*
X57277000Y-38481000D03*
X57277000Y-35941000D03*
X59817000Y-38481000D03*
X59817000Y-35941000D03*
X64897000Y-38481000D03*
X64897000Y-35941000D03*
X67437000Y-38481000D03*
X67437000Y-35941000D03*
D11*
X92837000Y-35941000D03*
D10*
X90297000Y-35941000D03*
X87757000Y-35941000D03*
X85217000Y-35941000D03*
X82677000Y-35941000D03*
X80137000Y-35941000D03*
X77597000Y-35941000D03*
X75057000Y-35941000D03*
X72517000Y-35941000D03*
X69977000Y-35941000D03*
X69977000Y-38481000D03*
X72517000Y-38481000D03*
X75057000Y-38481000D03*
X77597000Y-38481000D03*
X80137000Y-38481000D03*
X82677000Y-38481000D03*
X85217000Y-38481000D03*
X87757000Y-38481000D03*
X90297000Y-38481000D03*
X92837000Y-38481000D03*
X62357000Y-35941000D03*
X62357000Y-38481000D03*
X62357000Y-43942000D03*
X62357000Y-46482000D03*
X92837000Y-43942000D03*
X90297000Y-43942000D03*
X87757000Y-43942000D03*
X85217000Y-43942000D03*
X82677000Y-43942000D03*
X80137000Y-43942000D03*
X77597000Y-43942000D03*
X75057000Y-43942000D03*
X72517000Y-43942000D03*
X69977000Y-43942000D03*
X69977000Y-46482000D03*
X72517000Y-46482000D03*
X75057000Y-46482000D03*
X77597000Y-46482000D03*
X80137000Y-46482000D03*
X82677000Y-46482000D03*
X85217000Y-46482000D03*
X87757000Y-46482000D03*
X90297000Y-46482000D03*
X92837000Y-46482000D03*
X67437000Y-46482000D03*
X67437000Y-43942000D03*
X64897000Y-46482000D03*
X64897000Y-43942000D03*
X59817000Y-46482000D03*
X59817000Y-43942000D03*
X57277000Y-46482000D03*
X57277000Y-43942000D03*
X54737000Y-46482000D03*
X54737000Y-43942000D03*
D11*
X52197000Y-46482000D03*
D10*
X52197000Y-43942000D03*
D12*
X42164000Y-37846000D03*
X42164000Y-40386000D03*
X42164000Y-42926000D03*
G04 #@! TA.AperFunction,ComponentPad*
D13*
G36*
X43038505Y-44597204D02*
G01*
X43062773Y-44600804D01*
X43086572Y-44606765D01*
X43109671Y-44615030D01*
X43131850Y-44625520D01*
X43152893Y-44638132D01*
X43172599Y-44652747D01*
X43190777Y-44669223D01*
X43207253Y-44687401D01*
X43221868Y-44707107D01*
X43234480Y-44728150D01*
X43244970Y-44750329D01*
X43253235Y-44773428D01*
X43259196Y-44797227D01*
X43262796Y-44821495D01*
X43264000Y-44845999D01*
X43264000Y-46086001D01*
X43262796Y-46110505D01*
X43259196Y-46134773D01*
X43253235Y-46158572D01*
X43244970Y-46181671D01*
X43234480Y-46203850D01*
X43221868Y-46224893D01*
X43207253Y-46244599D01*
X43190777Y-46262777D01*
X43172599Y-46279253D01*
X43152893Y-46293868D01*
X43131850Y-46306480D01*
X43109671Y-46316970D01*
X43086572Y-46325235D01*
X43062773Y-46331196D01*
X43038505Y-46334796D01*
X43014001Y-46336000D01*
X41313999Y-46336000D01*
X41289495Y-46334796D01*
X41265227Y-46331196D01*
X41241428Y-46325235D01*
X41218329Y-46316970D01*
X41196150Y-46306480D01*
X41175107Y-46293868D01*
X41155401Y-46279253D01*
X41137223Y-46262777D01*
X41120747Y-46244599D01*
X41106132Y-46224893D01*
X41093520Y-46203850D01*
X41083030Y-46181671D01*
X41074765Y-46158572D01*
X41068804Y-46134773D01*
X41065204Y-46110505D01*
X41064000Y-46086001D01*
X41064000Y-44845999D01*
X41065204Y-44821495D01*
X41068804Y-44797227D01*
X41074765Y-44773428D01*
X41083030Y-44750329D01*
X41093520Y-44728150D01*
X41106132Y-44707107D01*
X41120747Y-44687401D01*
X41137223Y-44669223D01*
X41155401Y-44652747D01*
X41175107Y-44638132D01*
X41196150Y-44625520D01*
X41218329Y-44615030D01*
X41241428Y-44606765D01*
X41265227Y-44600804D01*
X41289495Y-44597204D01*
X41313999Y-44596000D01*
X43014001Y-44596000D01*
X43038505Y-44597204D01*
G37*
G04 #@! TD.AperFunction*
D14*
X56118249Y-32950989D02*
X86741749Y-32950989D01*
X89535001Y-43180001D02*
X90297000Y-43942000D01*
X89209999Y-42854999D02*
X89535001Y-43180001D01*
X53649999Y-35419239D02*
X56118249Y-32950989D01*
X53649999Y-37393999D02*
X53649999Y-35419239D01*
X54737000Y-38481000D02*
X53649999Y-37393999D01*
X86741749Y-32950989D02*
X89209999Y-35419239D01*
X89209999Y-35419239D02*
X89209999Y-42854999D01*
X86995001Y-43180001D02*
X87757000Y-43942000D01*
X86669999Y-42854999D02*
X86995001Y-43180001D01*
X58208238Y-33401000D02*
X84285762Y-33401000D01*
X86669999Y-35785237D02*
X86669999Y-42854999D01*
X84285762Y-33401000D02*
X86669999Y-35785237D01*
X56189999Y-37393999D02*
X56189999Y-35419239D01*
X56189999Y-35419239D02*
X58208238Y-33401000D01*
X57277000Y-38481000D02*
X56189999Y-37393999D01*
X84455001Y-43180001D02*
X85217000Y-43942000D01*
X84129999Y-42854999D02*
X84455001Y-43180001D01*
X84129999Y-35785237D02*
X84129999Y-42854999D01*
X82253762Y-33909000D02*
X84129999Y-35785237D01*
X60240238Y-33909000D02*
X82253762Y-33909000D01*
X59817000Y-38481000D02*
X58739370Y-38481000D01*
X58729999Y-35419239D02*
X60240238Y-33909000D01*
X58729999Y-38471629D02*
X58729999Y-35419239D01*
X58739370Y-38481000D02*
X58729999Y-38471629D01*
X81589999Y-42854999D02*
X81915001Y-43180001D01*
X81589999Y-35785237D02*
X81589999Y-42854999D01*
X61269999Y-35419239D02*
X62272238Y-34417000D01*
X61269999Y-37393999D02*
X61269999Y-35419239D01*
X80221762Y-34417000D02*
X81589999Y-35785237D01*
X81915001Y-43180001D02*
X82677000Y-43942000D01*
X62272238Y-34417000D02*
X80221762Y-34417000D01*
X62357000Y-38481000D02*
X61269999Y-37393999D01*
X79375001Y-43180001D02*
X80137000Y-43942000D01*
X66294000Y-37084000D02*
X77808762Y-37084000D01*
X79049999Y-42854999D02*
X79375001Y-43180001D01*
X77808762Y-37084000D02*
X79049999Y-38325237D01*
X79049999Y-38325237D02*
X79049999Y-42854999D01*
X64897000Y-38481000D02*
X66294000Y-37084000D01*
X75057000Y-43561000D02*
X75057000Y-43942000D01*
X69977000Y-38481000D02*
X75057000Y-43561000D01*
X68198999Y-44703999D02*
X67437000Y-43942000D01*
X68524001Y-45029001D02*
X68198999Y-44703999D01*
X78118761Y-45029001D02*
X68524001Y-45029001D01*
X78684001Y-43420239D02*
X78684001Y-44463761D01*
X77597000Y-42333238D02*
X78684001Y-43420239D01*
X78684001Y-44463761D02*
X78118761Y-45029001D01*
X77597000Y-38481000D02*
X77597000Y-42333238D01*
X63444001Y-45029001D02*
X63118999Y-44703999D01*
X63444001Y-46637763D02*
X63444001Y-45029001D01*
X64939238Y-48133000D02*
X63444001Y-46637763D01*
X63118999Y-44703999D02*
X62357000Y-43942000D01*
X82634762Y-48133000D02*
X64939238Y-48133000D01*
X83764001Y-47003761D02*
X82634762Y-48133000D01*
X82677000Y-38481000D02*
X82677000Y-42333238D01*
X83764001Y-43420239D02*
X83764001Y-47003761D01*
X82677000Y-42333238D02*
X83764001Y-43420239D01*
X60904001Y-46637763D02*
X60904001Y-45029001D01*
X63034238Y-48768000D02*
X60904001Y-46637763D01*
X84539762Y-48768000D02*
X63034238Y-48768000D01*
X86304001Y-47003761D02*
X84539762Y-48768000D01*
X60578999Y-44703999D02*
X59817000Y-43942000D01*
X86304001Y-43420239D02*
X86304001Y-47003761D01*
X85217000Y-42333238D02*
X86304001Y-43420239D01*
X60904001Y-45029001D02*
X60578999Y-44703999D01*
X85217000Y-38481000D02*
X85217000Y-42333238D01*
X65658999Y-44703999D02*
X64897000Y-43942000D01*
X65984001Y-45029001D02*
X65658999Y-44703999D01*
X66971238Y-47625000D02*
X65984001Y-46637763D01*
X80602762Y-47625000D02*
X66971238Y-47625000D01*
X65984001Y-46637763D02*
X65984001Y-45029001D01*
X81224001Y-47003761D02*
X80602762Y-47625000D01*
X81224001Y-43420239D02*
X81224001Y-47003761D01*
X80137000Y-42333238D02*
X81224001Y-43420239D01*
X80137000Y-38481000D02*
X80137000Y-42333238D01*
X60648011Y-49218011D02*
X58364001Y-46934001D01*
X87757000Y-38481000D02*
X87757000Y-42333238D01*
X58364001Y-46934001D02*
X58364001Y-45029001D01*
X87757000Y-42333238D02*
X88844001Y-43420239D01*
X58364001Y-45029001D02*
X58038999Y-44703999D01*
X88844001Y-43420239D02*
X88844001Y-47003761D01*
X88844001Y-47003761D02*
X86629751Y-49218011D01*
X86629751Y-49218011D02*
X60648011Y-49218011D01*
X58038999Y-44703999D02*
X57277000Y-43942000D01*
D15*
G36*
X97892001Y-49124000D02*
G01*
X87798564Y-49124000D01*
X89355009Y-47567556D01*
X89378737Y-47548083D01*
X89394631Y-47563977D01*
X89511041Y-47447567D01*
X89578020Y-47687656D01*
X89827048Y-47804756D01*
X90094135Y-47871023D01*
X90369017Y-47883910D01*
X90641133Y-47842922D01*
X90900023Y-47749636D01*
X91015980Y-47687656D01*
X91082960Y-47447565D01*
X92051040Y-47447565D01*
X92118020Y-47687656D01*
X92367048Y-47804756D01*
X92634135Y-47871023D01*
X92909017Y-47883910D01*
X93181133Y-47842922D01*
X93440023Y-47749636D01*
X93555980Y-47687656D01*
X93622960Y-47447565D01*
X92837000Y-46661605D01*
X92051040Y-47447565D01*
X91082960Y-47447565D01*
X90297000Y-46661605D01*
X90282858Y-46675748D01*
X90103253Y-46496143D01*
X90117395Y-46482000D01*
X90476605Y-46482000D01*
X91262565Y-47267960D01*
X91502656Y-47200980D01*
X91564079Y-47070356D01*
X91569364Y-47085023D01*
X91631344Y-47200980D01*
X91871435Y-47267960D01*
X92657395Y-46482000D01*
X93016605Y-46482000D01*
X93802565Y-47267960D01*
X94042656Y-47200980D01*
X94159756Y-46951952D01*
X94226023Y-46684865D01*
X94238910Y-46409983D01*
X94197922Y-46137867D01*
X94104636Y-45878977D01*
X94042656Y-45763020D01*
X93802565Y-45696040D01*
X93016605Y-46482000D01*
X92657395Y-46482000D01*
X91871435Y-45696040D01*
X91631344Y-45763020D01*
X91569921Y-45893644D01*
X91564636Y-45878977D01*
X91502656Y-45763020D01*
X91262565Y-45696040D01*
X90476605Y-46482000D01*
X90117395Y-46482000D01*
X90103253Y-46467858D01*
X90282858Y-46288253D01*
X90297000Y-46302395D01*
X91082960Y-45516435D01*
X91015980Y-45276344D01*
X90880240Y-45212515D01*
X90958727Y-45180005D01*
X91187535Y-45027120D01*
X91382120Y-44832535D01*
X91535005Y-44603727D01*
X91567000Y-44526485D01*
X91598995Y-44603727D01*
X91751880Y-44832535D01*
X91946465Y-45027120D01*
X92175273Y-45180005D01*
X92246943Y-45209692D01*
X92233977Y-45214364D01*
X92118020Y-45276344D01*
X92051040Y-45516435D01*
X92837000Y-46302395D01*
X93622960Y-45516435D01*
X93555980Y-45276344D01*
X93420240Y-45212515D01*
X93498727Y-45180005D01*
X93727535Y-45027120D01*
X93922120Y-44832535D01*
X94075005Y-44603727D01*
X94180314Y-44349490D01*
X94234000Y-44079592D01*
X94234000Y-43804408D01*
X94180314Y-43534510D01*
X94075005Y-43280273D01*
X93922120Y-43051465D01*
X93727535Y-42856880D01*
X93498727Y-42703995D01*
X93244490Y-42598686D01*
X92974592Y-42545000D01*
X92699408Y-42545000D01*
X92429510Y-42598686D01*
X92175273Y-42703995D01*
X91946465Y-42856880D01*
X91751880Y-43051465D01*
X91598995Y-43280273D01*
X91567000Y-43357515D01*
X91535005Y-43280273D01*
X91382120Y-43051465D01*
X91187535Y-42856880D01*
X90958727Y-42703995D01*
X90704490Y-42598686D01*
X90434592Y-42545000D01*
X90159408Y-42545000D01*
X90005429Y-42575628D01*
X89969999Y-42540198D01*
X89969999Y-39840324D01*
X90159408Y-39878000D01*
X90434592Y-39878000D01*
X90704490Y-39824314D01*
X90958727Y-39719005D01*
X91187535Y-39566120D01*
X91382120Y-39371535D01*
X91535005Y-39142727D01*
X91567000Y-39065485D01*
X91598995Y-39142727D01*
X91751880Y-39371535D01*
X91946465Y-39566120D01*
X92175273Y-39719005D01*
X92429510Y-39824314D01*
X92699408Y-39878000D01*
X92974592Y-39878000D01*
X93244490Y-39824314D01*
X93498727Y-39719005D01*
X93727535Y-39566120D01*
X93922120Y-39371535D01*
X94075005Y-39142727D01*
X94180314Y-38888490D01*
X94234000Y-38618592D01*
X94234000Y-38343408D01*
X94180314Y-38073510D01*
X94075005Y-37819273D01*
X93922120Y-37590465D01*
X93727535Y-37395880D01*
X93639535Y-37337080D01*
X93723482Y-37328812D01*
X93843180Y-37292502D01*
X93953494Y-37233537D01*
X94050185Y-37154185D01*
X94129537Y-37057494D01*
X94188502Y-36947180D01*
X94224812Y-36827482D01*
X94237072Y-36703000D01*
X94237072Y-35179000D01*
X94224812Y-35054518D01*
X94188502Y-34934820D01*
X94129537Y-34824506D01*
X94050185Y-34727815D01*
X93953494Y-34648463D01*
X93843180Y-34589498D01*
X93723482Y-34553188D01*
X93599000Y-34540928D01*
X92075000Y-34540928D01*
X91950518Y-34553188D01*
X91830820Y-34589498D01*
X91720506Y-34648463D01*
X91623815Y-34727815D01*
X91544463Y-34824506D01*
X91485498Y-34934820D01*
X91449188Y-35054518D01*
X91440920Y-35138465D01*
X91382120Y-35050465D01*
X91187535Y-34855880D01*
X90958727Y-34702995D01*
X90704490Y-34597686D01*
X90434592Y-34544000D01*
X90159408Y-34544000D01*
X89889510Y-34597686D01*
X89635273Y-34702995D01*
X89595280Y-34729718D01*
X87783561Y-32918000D01*
X97892000Y-32918000D01*
X97892001Y-49124000D01*
G37*
X97892001Y-49124000D02*
X87798564Y-49124000D01*
X89355009Y-47567556D01*
X89378737Y-47548083D01*
X89394631Y-47563977D01*
X89511041Y-47447567D01*
X89578020Y-47687656D01*
X89827048Y-47804756D01*
X90094135Y-47871023D01*
X90369017Y-47883910D01*
X90641133Y-47842922D01*
X90900023Y-47749636D01*
X91015980Y-47687656D01*
X91082960Y-47447565D01*
X92051040Y-47447565D01*
X92118020Y-47687656D01*
X92367048Y-47804756D01*
X92634135Y-47871023D01*
X92909017Y-47883910D01*
X93181133Y-47842922D01*
X93440023Y-47749636D01*
X93555980Y-47687656D01*
X93622960Y-47447565D01*
X92837000Y-46661605D01*
X92051040Y-47447565D01*
X91082960Y-47447565D01*
X90297000Y-46661605D01*
X90282858Y-46675748D01*
X90103253Y-46496143D01*
X90117395Y-46482000D01*
X90476605Y-46482000D01*
X91262565Y-47267960D01*
X91502656Y-47200980D01*
X91564079Y-47070356D01*
X91569364Y-47085023D01*
X91631344Y-47200980D01*
X91871435Y-47267960D01*
X92657395Y-46482000D01*
X93016605Y-46482000D01*
X93802565Y-47267960D01*
X94042656Y-47200980D01*
X94159756Y-46951952D01*
X94226023Y-46684865D01*
X94238910Y-46409983D01*
X94197922Y-46137867D01*
X94104636Y-45878977D01*
X94042656Y-45763020D01*
X93802565Y-45696040D01*
X93016605Y-46482000D01*
X92657395Y-46482000D01*
X91871435Y-45696040D01*
X91631344Y-45763020D01*
X91569921Y-45893644D01*
X91564636Y-45878977D01*
X91502656Y-45763020D01*
X91262565Y-45696040D01*
X90476605Y-46482000D01*
X90117395Y-46482000D01*
X90103253Y-46467858D01*
X90282858Y-46288253D01*
X90297000Y-46302395D01*
X91082960Y-45516435D01*
X91015980Y-45276344D01*
X90880240Y-45212515D01*
X90958727Y-45180005D01*
X91187535Y-45027120D01*
X91382120Y-44832535D01*
X91535005Y-44603727D01*
X91567000Y-44526485D01*
X91598995Y-44603727D01*
X91751880Y-44832535D01*
X91946465Y-45027120D01*
X92175273Y-45180005D01*
X92246943Y-45209692D01*
X92233977Y-45214364D01*
X92118020Y-45276344D01*
X92051040Y-45516435D01*
X92837000Y-46302395D01*
X93622960Y-45516435D01*
X93555980Y-45276344D01*
X93420240Y-45212515D01*
X93498727Y-45180005D01*
X93727535Y-45027120D01*
X93922120Y-44832535D01*
X94075005Y-44603727D01*
X94180314Y-44349490D01*
X94234000Y-44079592D01*
X94234000Y-43804408D01*
X94180314Y-43534510D01*
X94075005Y-43280273D01*
X93922120Y-43051465D01*
X93727535Y-42856880D01*
X93498727Y-42703995D01*
X93244490Y-42598686D01*
X92974592Y-42545000D01*
X92699408Y-42545000D01*
X92429510Y-42598686D01*
X92175273Y-42703995D01*
X91946465Y-42856880D01*
X91751880Y-43051465D01*
X91598995Y-43280273D01*
X91567000Y-43357515D01*
X91535005Y-43280273D01*
X91382120Y-43051465D01*
X91187535Y-42856880D01*
X90958727Y-42703995D01*
X90704490Y-42598686D01*
X90434592Y-42545000D01*
X90159408Y-42545000D01*
X90005429Y-42575628D01*
X89969999Y-42540198D01*
X89969999Y-39840324D01*
X90159408Y-39878000D01*
X90434592Y-39878000D01*
X90704490Y-39824314D01*
X90958727Y-39719005D01*
X91187535Y-39566120D01*
X91382120Y-39371535D01*
X91535005Y-39142727D01*
X91567000Y-39065485D01*
X91598995Y-39142727D01*
X91751880Y-39371535D01*
X91946465Y-39566120D01*
X92175273Y-39719005D01*
X92429510Y-39824314D01*
X92699408Y-39878000D01*
X92974592Y-39878000D01*
X93244490Y-39824314D01*
X93498727Y-39719005D01*
X93727535Y-39566120D01*
X93922120Y-39371535D01*
X94075005Y-39142727D01*
X94180314Y-38888490D01*
X94234000Y-38618592D01*
X94234000Y-38343408D01*
X94180314Y-38073510D01*
X94075005Y-37819273D01*
X93922120Y-37590465D01*
X93727535Y-37395880D01*
X93639535Y-37337080D01*
X93723482Y-37328812D01*
X93843180Y-37292502D01*
X93953494Y-37233537D01*
X94050185Y-37154185D01*
X94129537Y-37057494D01*
X94188502Y-36947180D01*
X94224812Y-36827482D01*
X94237072Y-36703000D01*
X94237072Y-35179000D01*
X94224812Y-35054518D01*
X94188502Y-34934820D01*
X94129537Y-34824506D01*
X94050185Y-34727815D01*
X93953494Y-34648463D01*
X93843180Y-34589498D01*
X93723482Y-34553188D01*
X93599000Y-34540928D01*
X92075000Y-34540928D01*
X91950518Y-34553188D01*
X91830820Y-34589498D01*
X91720506Y-34648463D01*
X91623815Y-34727815D01*
X91544463Y-34824506D01*
X91485498Y-34934820D01*
X91449188Y-35054518D01*
X91440920Y-35138465D01*
X91382120Y-35050465D01*
X91187535Y-34855880D01*
X90958727Y-34702995D01*
X90704490Y-34597686D01*
X90434592Y-34544000D01*
X90159408Y-34544000D01*
X89889510Y-34597686D01*
X89635273Y-34702995D01*
X89595280Y-34729718D01*
X87783561Y-32918000D01*
X97892000Y-32918000D01*
X97892001Y-49124000D01*
G36*
X53138997Y-34855440D02*
G01*
X53110490Y-34878835D01*
X53087535Y-34855880D01*
X52858727Y-34702995D01*
X52604490Y-34597686D01*
X52334592Y-34544000D01*
X52059408Y-34544000D01*
X51789510Y-34597686D01*
X51535273Y-34702995D01*
X51306465Y-34855880D01*
X51111880Y-35050465D01*
X50958995Y-35279273D01*
X50853686Y-35533510D01*
X50800000Y-35803408D01*
X50800000Y-36078592D01*
X50853686Y-36348490D01*
X50958995Y-36602727D01*
X51111880Y-36831535D01*
X51306465Y-37026120D01*
X51535273Y-37179005D01*
X51612515Y-37211000D01*
X51535273Y-37242995D01*
X51306465Y-37395880D01*
X51111880Y-37590465D01*
X50958995Y-37819273D01*
X50853686Y-38073510D01*
X50800000Y-38343408D01*
X50800000Y-38618592D01*
X50853686Y-38888490D01*
X50958995Y-39142727D01*
X51111880Y-39371535D01*
X51306465Y-39566120D01*
X51535273Y-39719005D01*
X51789510Y-39824314D01*
X52059408Y-39878000D01*
X52334592Y-39878000D01*
X52604490Y-39824314D01*
X52858727Y-39719005D01*
X53087535Y-39566120D01*
X53282120Y-39371535D01*
X53435005Y-39142727D01*
X53467000Y-39065485D01*
X53498995Y-39142727D01*
X53651880Y-39371535D01*
X53846465Y-39566120D01*
X54075273Y-39719005D01*
X54329510Y-39824314D01*
X54599408Y-39878000D01*
X54874592Y-39878000D01*
X55144490Y-39824314D01*
X55398727Y-39719005D01*
X55627535Y-39566120D01*
X55822120Y-39371535D01*
X55975005Y-39142727D01*
X56007000Y-39065485D01*
X56038995Y-39142727D01*
X56191880Y-39371535D01*
X56386465Y-39566120D01*
X56615273Y-39719005D01*
X56869510Y-39824314D01*
X57139408Y-39878000D01*
X57414592Y-39878000D01*
X57684490Y-39824314D01*
X57938727Y-39719005D01*
X58167535Y-39566120D01*
X58362120Y-39371535D01*
X58479220Y-39196282D01*
X58590384Y-39230003D01*
X58640617Y-39234951D01*
X58731880Y-39371535D01*
X58926465Y-39566120D01*
X59155273Y-39719005D01*
X59409510Y-39824314D01*
X59679408Y-39878000D01*
X59954592Y-39878000D01*
X60224490Y-39824314D01*
X60478727Y-39719005D01*
X60707535Y-39566120D01*
X60902120Y-39371535D01*
X61055005Y-39142727D01*
X61087000Y-39065485D01*
X61118995Y-39142727D01*
X61271880Y-39371535D01*
X61466465Y-39566120D01*
X61695273Y-39719005D01*
X61949510Y-39824314D01*
X62219408Y-39878000D01*
X62494592Y-39878000D01*
X62764490Y-39824314D01*
X63018727Y-39719005D01*
X63247535Y-39566120D01*
X63442120Y-39371535D01*
X63595005Y-39142727D01*
X63627000Y-39065485D01*
X63658995Y-39142727D01*
X63811880Y-39371535D01*
X64006465Y-39566120D01*
X64235273Y-39719005D01*
X64489510Y-39824314D01*
X64759408Y-39878000D01*
X65034592Y-39878000D01*
X65304490Y-39824314D01*
X65558727Y-39719005D01*
X65787535Y-39566120D01*
X65982120Y-39371535D01*
X66135005Y-39142727D01*
X66167000Y-39065485D01*
X66198995Y-39142727D01*
X66351880Y-39371535D01*
X66546465Y-39566120D01*
X66775273Y-39719005D01*
X67029510Y-39824314D01*
X67299408Y-39878000D01*
X67574592Y-39878000D01*
X67844490Y-39824314D01*
X68098727Y-39719005D01*
X68327535Y-39566120D01*
X68522120Y-39371535D01*
X68675005Y-39142727D01*
X68707000Y-39065485D01*
X68738995Y-39142727D01*
X68891880Y-39371535D01*
X69086465Y-39566120D01*
X69315273Y-39719005D01*
X69569510Y-39824314D01*
X69839408Y-39878000D01*
X70114592Y-39878000D01*
X70268571Y-39847372D01*
X73087339Y-42666141D01*
X72924490Y-42598686D01*
X72654592Y-42545000D01*
X72379408Y-42545000D01*
X72109510Y-42598686D01*
X71855273Y-42703995D01*
X71626465Y-42856880D01*
X71431880Y-43051465D01*
X71278995Y-43280273D01*
X71247000Y-43357515D01*
X71215005Y-43280273D01*
X71062120Y-43051465D01*
X70867535Y-42856880D01*
X70638727Y-42703995D01*
X70384490Y-42598686D01*
X70114592Y-42545000D01*
X69839408Y-42545000D01*
X69569510Y-42598686D01*
X69315273Y-42703995D01*
X69086465Y-42856880D01*
X68891880Y-43051465D01*
X68738995Y-43280273D01*
X68707000Y-43357515D01*
X68675005Y-43280273D01*
X68522120Y-43051465D01*
X68327535Y-42856880D01*
X68098727Y-42703995D01*
X67844490Y-42598686D01*
X67574592Y-42545000D01*
X67299408Y-42545000D01*
X67029510Y-42598686D01*
X66775273Y-42703995D01*
X66546465Y-42856880D01*
X66351880Y-43051465D01*
X66198995Y-43280273D01*
X66167000Y-43357515D01*
X66135005Y-43280273D01*
X65982120Y-43051465D01*
X65787535Y-42856880D01*
X65558727Y-42703995D01*
X65304490Y-42598686D01*
X65034592Y-42545000D01*
X64759408Y-42545000D01*
X64489510Y-42598686D01*
X64235273Y-42703995D01*
X64006465Y-42856880D01*
X63811880Y-43051465D01*
X63658995Y-43280273D01*
X63627000Y-43357515D01*
X63595005Y-43280273D01*
X63442120Y-43051465D01*
X63247535Y-42856880D01*
X63018727Y-42703995D01*
X62764490Y-42598686D01*
X62494592Y-42545000D01*
X62219408Y-42545000D01*
X61949510Y-42598686D01*
X61695273Y-42703995D01*
X61466465Y-42856880D01*
X61271880Y-43051465D01*
X61118995Y-43280273D01*
X61087000Y-43357515D01*
X61055005Y-43280273D01*
X60902120Y-43051465D01*
X60707535Y-42856880D01*
X60478727Y-42703995D01*
X60224490Y-42598686D01*
X59954592Y-42545000D01*
X59679408Y-42545000D01*
X59409510Y-42598686D01*
X59155273Y-42703995D01*
X58926465Y-42856880D01*
X58731880Y-43051465D01*
X58578995Y-43280273D01*
X58547000Y-43357515D01*
X58515005Y-43280273D01*
X58362120Y-43051465D01*
X58167535Y-42856880D01*
X57938727Y-42703995D01*
X57684490Y-42598686D01*
X57414592Y-42545000D01*
X57139408Y-42545000D01*
X56869510Y-42598686D01*
X56615273Y-42703995D01*
X56386465Y-42856880D01*
X56191880Y-43051465D01*
X56038995Y-43280273D01*
X56007000Y-43357515D01*
X55975005Y-43280273D01*
X55822120Y-43051465D01*
X55627535Y-42856880D01*
X55398727Y-42703995D01*
X55144490Y-42598686D01*
X54874592Y-42545000D01*
X54599408Y-42545000D01*
X54329510Y-42598686D01*
X54075273Y-42703995D01*
X53846465Y-42856880D01*
X53651880Y-43051465D01*
X53498995Y-43280273D01*
X53467000Y-43357515D01*
X53435005Y-43280273D01*
X53282120Y-43051465D01*
X53087535Y-42856880D01*
X52858727Y-42703995D01*
X52604490Y-42598686D01*
X52334592Y-42545000D01*
X52059408Y-42545000D01*
X51789510Y-42598686D01*
X51535273Y-42703995D01*
X51306465Y-42856880D01*
X51111880Y-43051465D01*
X50958995Y-43280273D01*
X50853686Y-43534510D01*
X50800000Y-43804408D01*
X50800000Y-44079592D01*
X50853686Y-44349490D01*
X50958995Y-44603727D01*
X51111880Y-44832535D01*
X51306465Y-45027120D01*
X51394465Y-45085920D01*
X51310518Y-45094188D01*
X51190820Y-45130498D01*
X51080506Y-45189463D01*
X50983815Y-45268815D01*
X50904463Y-45365506D01*
X50845498Y-45475820D01*
X50809188Y-45595518D01*
X50796928Y-45720000D01*
X50800000Y-46196250D01*
X50958750Y-46355000D01*
X52070000Y-46355000D01*
X52070000Y-46335000D01*
X52324000Y-46335000D01*
X52324000Y-46355000D01*
X52344000Y-46355000D01*
X52344000Y-46609000D01*
X52324000Y-46609000D01*
X52324000Y-47720250D01*
X52482750Y-47879000D01*
X52959000Y-47882072D01*
X53083482Y-47869812D01*
X53203180Y-47833502D01*
X53313494Y-47774537D01*
X53410185Y-47695185D01*
X53489537Y-47598494D01*
X53548502Y-47488180D01*
X53560822Y-47447565D01*
X53951040Y-47447565D01*
X54018020Y-47687656D01*
X54267048Y-47804756D01*
X54534135Y-47871023D01*
X54809017Y-47883910D01*
X55081133Y-47842922D01*
X55340023Y-47749636D01*
X55455980Y-47687656D01*
X55522960Y-47447565D01*
X54737000Y-46661605D01*
X53951040Y-47447565D01*
X53560822Y-47447565D01*
X53584812Y-47368482D01*
X53597072Y-47244000D01*
X53596912Y-47219272D01*
X53771435Y-47267960D01*
X54557395Y-46482000D01*
X54916605Y-46482000D01*
X55702565Y-47267960D01*
X55942656Y-47200980D01*
X56004079Y-47070356D01*
X56009364Y-47085023D01*
X56071344Y-47200980D01*
X56311435Y-47267960D01*
X57097395Y-46482000D01*
X56311435Y-45696040D01*
X56071344Y-45763020D01*
X56009921Y-45893644D01*
X56004636Y-45878977D01*
X55942656Y-45763020D01*
X55702565Y-45696040D01*
X54916605Y-46482000D01*
X54557395Y-46482000D01*
X53771435Y-45696040D01*
X53596912Y-45744728D01*
X53597072Y-45720000D01*
X53584812Y-45595518D01*
X53548502Y-45475820D01*
X53489537Y-45365506D01*
X53410185Y-45268815D01*
X53313494Y-45189463D01*
X53203180Y-45130498D01*
X53083482Y-45094188D01*
X52999535Y-45085920D01*
X53087535Y-45027120D01*
X53282120Y-44832535D01*
X53435005Y-44603727D01*
X53467000Y-44526485D01*
X53498995Y-44603727D01*
X53651880Y-44832535D01*
X53846465Y-45027120D01*
X54075273Y-45180005D01*
X54146943Y-45209692D01*
X54133977Y-45214364D01*
X54018020Y-45276344D01*
X53951040Y-45516435D01*
X54737000Y-46302395D01*
X55522960Y-45516435D01*
X55455980Y-45276344D01*
X55320240Y-45212515D01*
X55398727Y-45180005D01*
X55627535Y-45027120D01*
X55822120Y-44832535D01*
X55975005Y-44603727D01*
X56007000Y-44526485D01*
X56038995Y-44603727D01*
X56191880Y-44832535D01*
X56386465Y-45027120D01*
X56615273Y-45180005D01*
X56686943Y-45209692D01*
X56673977Y-45214364D01*
X56558020Y-45276344D01*
X56491040Y-45516435D01*
X57277000Y-46302395D01*
X57291143Y-46288253D01*
X57470748Y-46467858D01*
X57456605Y-46482000D01*
X57470748Y-46496143D01*
X57291143Y-46675748D01*
X57277000Y-46661605D01*
X56491040Y-47447565D01*
X56558020Y-47687656D01*
X56807048Y-47804756D01*
X57074135Y-47871023D01*
X57349017Y-47883910D01*
X57621133Y-47842922D01*
X57880023Y-47749636D01*
X57995980Y-47687656D01*
X58006205Y-47651006D01*
X59479198Y-49124000D01*
X38760000Y-49124000D01*
X38760000Y-47244000D01*
X50796928Y-47244000D01*
X50809188Y-47368482D01*
X50845498Y-47488180D01*
X50904463Y-47598494D01*
X50983815Y-47695185D01*
X51080506Y-47774537D01*
X51190820Y-47833502D01*
X51310518Y-47869812D01*
X51435000Y-47882072D01*
X51911250Y-47879000D01*
X52070000Y-47720250D01*
X52070000Y-46609000D01*
X50958750Y-46609000D01*
X50800000Y-46767750D01*
X50796928Y-47244000D01*
X38760000Y-47244000D01*
X38760000Y-44845999D01*
X40425928Y-44845999D01*
X40425928Y-46086001D01*
X40442992Y-46259255D01*
X40493528Y-46425851D01*
X40575595Y-46579387D01*
X40686038Y-46713962D01*
X40820613Y-46824405D01*
X40974149Y-46906472D01*
X41140745Y-46957008D01*
X41313999Y-46974072D01*
X43014001Y-46974072D01*
X43187255Y-46957008D01*
X43353851Y-46906472D01*
X43507387Y-46824405D01*
X43641962Y-46713962D01*
X43752405Y-46579387D01*
X43834472Y-46425851D01*
X43885008Y-46259255D01*
X43902072Y-46086001D01*
X43902072Y-44845999D01*
X43885008Y-44672745D01*
X43834472Y-44506149D01*
X43752405Y-44352613D01*
X43641962Y-44218038D01*
X43507387Y-44107595D01*
X43398686Y-44049493D01*
X43554536Y-43896494D01*
X43721571Y-43651437D01*
X43837588Y-43378502D01*
X43855302Y-43286031D01*
X43734246Y-43053000D01*
X42291000Y-43053000D01*
X42291000Y-43073000D01*
X42037000Y-43073000D01*
X42037000Y-43053000D01*
X40593754Y-43053000D01*
X40472698Y-43286031D01*
X40490412Y-43378502D01*
X40606429Y-43651437D01*
X40773464Y-43896494D01*
X40929314Y-44049493D01*
X40820613Y-44107595D01*
X40686038Y-44218038D01*
X40575595Y-44352613D01*
X40493528Y-44506149D01*
X40442992Y-44672745D01*
X40425928Y-44845999D01*
X38760000Y-44845999D01*
X38760000Y-40746031D01*
X40472698Y-40746031D01*
X40490412Y-40838502D01*
X40606429Y-41111437D01*
X40773464Y-41356494D01*
X40985097Y-41564256D01*
X41125184Y-41656000D01*
X40985097Y-41747744D01*
X40773464Y-41955506D01*
X40606429Y-42200563D01*
X40490412Y-42473498D01*
X40472698Y-42565969D01*
X40593754Y-42799000D01*
X42037000Y-42799000D01*
X42037000Y-40513000D01*
X42291000Y-40513000D01*
X42291000Y-42799000D01*
X43734246Y-42799000D01*
X43855302Y-42565969D01*
X43837588Y-42473498D01*
X43721571Y-42200563D01*
X43554536Y-41955506D01*
X43342903Y-41747744D01*
X43202816Y-41656000D01*
X43342903Y-41564256D01*
X43554536Y-41356494D01*
X43721571Y-41111437D01*
X43837588Y-40838502D01*
X43855302Y-40746031D01*
X43734246Y-40513000D01*
X42291000Y-40513000D01*
X42037000Y-40513000D01*
X40593754Y-40513000D01*
X40472698Y-40746031D01*
X38760000Y-40746031D01*
X38760000Y-37846000D01*
X40421718Y-37846000D01*
X40450776Y-38141032D01*
X40536834Y-38424725D01*
X40676583Y-38686179D01*
X40864655Y-38915345D01*
X41093821Y-39103417D01*
X41121669Y-39118302D01*
X40985097Y-39207744D01*
X40773464Y-39415506D01*
X40606429Y-39660563D01*
X40490412Y-39933498D01*
X40472698Y-40025969D01*
X40593754Y-40259000D01*
X42037000Y-40259000D01*
X42037000Y-40239000D01*
X42291000Y-40239000D01*
X42291000Y-40259000D01*
X43734246Y-40259000D01*
X43855302Y-40025969D01*
X43837588Y-39933498D01*
X43721571Y-39660563D01*
X43554536Y-39415506D01*
X43342903Y-39207744D01*
X43206331Y-39118302D01*
X43234179Y-39103417D01*
X43463345Y-38915345D01*
X43651417Y-38686179D01*
X43791166Y-38424725D01*
X43877224Y-38141032D01*
X43906282Y-37846000D01*
X43877224Y-37550968D01*
X43791166Y-37267275D01*
X43651417Y-37005821D01*
X43463345Y-36776655D01*
X43234179Y-36588583D01*
X42972725Y-36448834D01*
X42689032Y-36362776D01*
X42467936Y-36341000D01*
X41860064Y-36341000D01*
X41638968Y-36362776D01*
X41355275Y-36448834D01*
X41093821Y-36588583D01*
X40864655Y-36776655D01*
X40676583Y-37005821D01*
X40536834Y-37267275D01*
X40450776Y-37550968D01*
X40421718Y-37846000D01*
X38760000Y-37846000D01*
X38760000Y-32918000D01*
X55076436Y-32918000D01*
X53138997Y-34855440D01*
G37*
X53138997Y-34855440D02*
X53110490Y-34878835D01*
X53087535Y-34855880D01*
X52858727Y-34702995D01*
X52604490Y-34597686D01*
X52334592Y-34544000D01*
X52059408Y-34544000D01*
X51789510Y-34597686D01*
X51535273Y-34702995D01*
X51306465Y-34855880D01*
X51111880Y-35050465D01*
X50958995Y-35279273D01*
X50853686Y-35533510D01*
X50800000Y-35803408D01*
X50800000Y-36078592D01*
X50853686Y-36348490D01*
X50958995Y-36602727D01*
X51111880Y-36831535D01*
X51306465Y-37026120D01*
X51535273Y-37179005D01*
X51612515Y-37211000D01*
X51535273Y-37242995D01*
X51306465Y-37395880D01*
X51111880Y-37590465D01*
X50958995Y-37819273D01*
X50853686Y-38073510D01*
X50800000Y-38343408D01*
X50800000Y-38618592D01*
X50853686Y-38888490D01*
X50958995Y-39142727D01*
X51111880Y-39371535D01*
X51306465Y-39566120D01*
X51535273Y-39719005D01*
X51789510Y-39824314D01*
X52059408Y-39878000D01*
X52334592Y-39878000D01*
X52604490Y-39824314D01*
X52858727Y-39719005D01*
X53087535Y-39566120D01*
X53282120Y-39371535D01*
X53435005Y-39142727D01*
X53467000Y-39065485D01*
X53498995Y-39142727D01*
X53651880Y-39371535D01*
X53846465Y-39566120D01*
X54075273Y-39719005D01*
X54329510Y-39824314D01*
X54599408Y-39878000D01*
X54874592Y-39878000D01*
X55144490Y-39824314D01*
X55398727Y-39719005D01*
X55627535Y-39566120D01*
X55822120Y-39371535D01*
X55975005Y-39142727D01*
X56007000Y-39065485D01*
X56038995Y-39142727D01*
X56191880Y-39371535D01*
X56386465Y-39566120D01*
X56615273Y-39719005D01*
X56869510Y-39824314D01*
X57139408Y-39878000D01*
X57414592Y-39878000D01*
X57684490Y-39824314D01*
X57938727Y-39719005D01*
X58167535Y-39566120D01*
X58362120Y-39371535D01*
X58479220Y-39196282D01*
X58590384Y-39230003D01*
X58640617Y-39234951D01*
X58731880Y-39371535D01*
X58926465Y-39566120D01*
X59155273Y-39719005D01*
X59409510Y-39824314D01*
X59679408Y-39878000D01*
X59954592Y-39878000D01*
X60224490Y-39824314D01*
X60478727Y-39719005D01*
X60707535Y-39566120D01*
X60902120Y-39371535D01*
X61055005Y-39142727D01*
X61087000Y-39065485D01*
X61118995Y-39142727D01*
X61271880Y-39371535D01*
X61466465Y-39566120D01*
X61695273Y-39719005D01*
X61949510Y-39824314D01*
X62219408Y-39878000D01*
X62494592Y-39878000D01*
X62764490Y-39824314D01*
X63018727Y-39719005D01*
X63247535Y-39566120D01*
X63442120Y-39371535D01*
X63595005Y-39142727D01*
X63627000Y-39065485D01*
X63658995Y-39142727D01*
X63811880Y-39371535D01*
X64006465Y-39566120D01*
X64235273Y-39719005D01*
X64489510Y-39824314D01*
X64759408Y-39878000D01*
X65034592Y-39878000D01*
X65304490Y-39824314D01*
X65558727Y-39719005D01*
X65787535Y-39566120D01*
X65982120Y-39371535D01*
X66135005Y-39142727D01*
X66167000Y-39065485D01*
X66198995Y-39142727D01*
X66351880Y-39371535D01*
X66546465Y-39566120D01*
X66775273Y-39719005D01*
X67029510Y-39824314D01*
X67299408Y-39878000D01*
X67574592Y-39878000D01*
X67844490Y-39824314D01*
X68098727Y-39719005D01*
X68327535Y-39566120D01*
X68522120Y-39371535D01*
X68675005Y-39142727D01*
X68707000Y-39065485D01*
X68738995Y-39142727D01*
X68891880Y-39371535D01*
X69086465Y-39566120D01*
X69315273Y-39719005D01*
X69569510Y-39824314D01*
X69839408Y-39878000D01*
X70114592Y-39878000D01*
X70268571Y-39847372D01*
X73087339Y-42666141D01*
X72924490Y-42598686D01*
X72654592Y-42545000D01*
X72379408Y-42545000D01*
X72109510Y-42598686D01*
X71855273Y-42703995D01*
X71626465Y-42856880D01*
X71431880Y-43051465D01*
X71278995Y-43280273D01*
X71247000Y-43357515D01*
X71215005Y-43280273D01*
X71062120Y-43051465D01*
X70867535Y-42856880D01*
X70638727Y-42703995D01*
X70384490Y-42598686D01*
X70114592Y-42545000D01*
X69839408Y-42545000D01*
X69569510Y-42598686D01*
X69315273Y-42703995D01*
X69086465Y-42856880D01*
X68891880Y-43051465D01*
X68738995Y-43280273D01*
X68707000Y-43357515D01*
X68675005Y-43280273D01*
X68522120Y-43051465D01*
X68327535Y-42856880D01*
X68098727Y-42703995D01*
X67844490Y-42598686D01*
X67574592Y-42545000D01*
X67299408Y-42545000D01*
X67029510Y-42598686D01*
X66775273Y-42703995D01*
X66546465Y-42856880D01*
X66351880Y-43051465D01*
X66198995Y-43280273D01*
X66167000Y-43357515D01*
X66135005Y-43280273D01*
X65982120Y-43051465D01*
X65787535Y-42856880D01*
X65558727Y-42703995D01*
X65304490Y-42598686D01*
X65034592Y-42545000D01*
X64759408Y-42545000D01*
X64489510Y-42598686D01*
X64235273Y-42703995D01*
X64006465Y-42856880D01*
X63811880Y-43051465D01*
X63658995Y-43280273D01*
X63627000Y-43357515D01*
X63595005Y-43280273D01*
X63442120Y-43051465D01*
X63247535Y-42856880D01*
X63018727Y-42703995D01*
X62764490Y-42598686D01*
X62494592Y-42545000D01*
X62219408Y-42545000D01*
X61949510Y-42598686D01*
X61695273Y-42703995D01*
X61466465Y-42856880D01*
X61271880Y-43051465D01*
X61118995Y-43280273D01*
X61087000Y-43357515D01*
X61055005Y-43280273D01*
X60902120Y-43051465D01*
X60707535Y-42856880D01*
X60478727Y-42703995D01*
X60224490Y-42598686D01*
X59954592Y-42545000D01*
X59679408Y-42545000D01*
X59409510Y-42598686D01*
X59155273Y-42703995D01*
X58926465Y-42856880D01*
X58731880Y-43051465D01*
X58578995Y-43280273D01*
X58547000Y-43357515D01*
X58515005Y-43280273D01*
X58362120Y-43051465D01*
X58167535Y-42856880D01*
X57938727Y-42703995D01*
X57684490Y-42598686D01*
X57414592Y-42545000D01*
X57139408Y-42545000D01*
X56869510Y-42598686D01*
X56615273Y-42703995D01*
X56386465Y-42856880D01*
X56191880Y-43051465D01*
X56038995Y-43280273D01*
X56007000Y-43357515D01*
X55975005Y-43280273D01*
X55822120Y-43051465D01*
X55627535Y-42856880D01*
X55398727Y-42703995D01*
X55144490Y-42598686D01*
X54874592Y-42545000D01*
X54599408Y-42545000D01*
X54329510Y-42598686D01*
X54075273Y-42703995D01*
X53846465Y-42856880D01*
X53651880Y-43051465D01*
X53498995Y-43280273D01*
X53467000Y-43357515D01*
X53435005Y-43280273D01*
X53282120Y-43051465D01*
X53087535Y-42856880D01*
X52858727Y-42703995D01*
X52604490Y-42598686D01*
X52334592Y-42545000D01*
X52059408Y-42545000D01*
X51789510Y-42598686D01*
X51535273Y-42703995D01*
X51306465Y-42856880D01*
X51111880Y-43051465D01*
X50958995Y-43280273D01*
X50853686Y-43534510D01*
X50800000Y-43804408D01*
X50800000Y-44079592D01*
X50853686Y-44349490D01*
X50958995Y-44603727D01*
X51111880Y-44832535D01*
X51306465Y-45027120D01*
X51394465Y-45085920D01*
X51310518Y-45094188D01*
X51190820Y-45130498D01*
X51080506Y-45189463D01*
X50983815Y-45268815D01*
X50904463Y-45365506D01*
X50845498Y-45475820D01*
X50809188Y-45595518D01*
X50796928Y-45720000D01*
X50800000Y-46196250D01*
X50958750Y-46355000D01*
X52070000Y-46355000D01*
X52070000Y-46335000D01*
X52324000Y-46335000D01*
X52324000Y-46355000D01*
X52344000Y-46355000D01*
X52344000Y-46609000D01*
X52324000Y-46609000D01*
X52324000Y-47720250D01*
X52482750Y-47879000D01*
X52959000Y-47882072D01*
X53083482Y-47869812D01*
X53203180Y-47833502D01*
X53313494Y-47774537D01*
X53410185Y-47695185D01*
X53489537Y-47598494D01*
X53548502Y-47488180D01*
X53560822Y-47447565D01*
X53951040Y-47447565D01*
X54018020Y-47687656D01*
X54267048Y-47804756D01*
X54534135Y-47871023D01*
X54809017Y-47883910D01*
X55081133Y-47842922D01*
X55340023Y-47749636D01*
X55455980Y-47687656D01*
X55522960Y-47447565D01*
X54737000Y-46661605D01*
X53951040Y-47447565D01*
X53560822Y-47447565D01*
X53584812Y-47368482D01*
X53597072Y-47244000D01*
X53596912Y-47219272D01*
X53771435Y-47267960D01*
X54557395Y-46482000D01*
X54916605Y-46482000D01*
X55702565Y-47267960D01*
X55942656Y-47200980D01*
X56004079Y-47070356D01*
X56009364Y-47085023D01*
X56071344Y-47200980D01*
X56311435Y-47267960D01*
X57097395Y-46482000D01*
X56311435Y-45696040D01*
X56071344Y-45763020D01*
X56009921Y-45893644D01*
X56004636Y-45878977D01*
X55942656Y-45763020D01*
X55702565Y-45696040D01*
X54916605Y-46482000D01*
X54557395Y-46482000D01*
X53771435Y-45696040D01*
X53596912Y-45744728D01*
X53597072Y-45720000D01*
X53584812Y-45595518D01*
X53548502Y-45475820D01*
X53489537Y-45365506D01*
X53410185Y-45268815D01*
X53313494Y-45189463D01*
X53203180Y-45130498D01*
X53083482Y-45094188D01*
X52999535Y-45085920D01*
X53087535Y-45027120D01*
X53282120Y-44832535D01*
X53435005Y-44603727D01*
X53467000Y-44526485D01*
X53498995Y-44603727D01*
X53651880Y-44832535D01*
X53846465Y-45027120D01*
X54075273Y-45180005D01*
X54146943Y-45209692D01*
X54133977Y-45214364D01*
X54018020Y-45276344D01*
X53951040Y-45516435D01*
X54737000Y-46302395D01*
X55522960Y-45516435D01*
X55455980Y-45276344D01*
X55320240Y-45212515D01*
X55398727Y-45180005D01*
X55627535Y-45027120D01*
X55822120Y-44832535D01*
X55975005Y-44603727D01*
X56007000Y-44526485D01*
X56038995Y-44603727D01*
X56191880Y-44832535D01*
X56386465Y-45027120D01*
X56615273Y-45180005D01*
X56686943Y-45209692D01*
X56673977Y-45214364D01*
X56558020Y-45276344D01*
X56491040Y-45516435D01*
X57277000Y-46302395D01*
X57291143Y-46288253D01*
X57470748Y-46467858D01*
X57456605Y-46482000D01*
X57470748Y-46496143D01*
X57291143Y-46675748D01*
X57277000Y-46661605D01*
X56491040Y-47447565D01*
X56558020Y-47687656D01*
X56807048Y-47804756D01*
X57074135Y-47871023D01*
X57349017Y-47883910D01*
X57621133Y-47842922D01*
X57880023Y-47749636D01*
X57995980Y-47687656D01*
X58006205Y-47651006D01*
X59479198Y-49124000D01*
X38760000Y-49124000D01*
X38760000Y-47244000D01*
X50796928Y-47244000D01*
X50809188Y-47368482D01*
X50845498Y-47488180D01*
X50904463Y-47598494D01*
X50983815Y-47695185D01*
X51080506Y-47774537D01*
X51190820Y-47833502D01*
X51310518Y-47869812D01*
X51435000Y-47882072D01*
X51911250Y-47879000D01*
X52070000Y-47720250D01*
X52070000Y-46609000D01*
X50958750Y-46609000D01*
X50800000Y-46767750D01*
X50796928Y-47244000D01*
X38760000Y-47244000D01*
X38760000Y-44845999D01*
X40425928Y-44845999D01*
X40425928Y-46086001D01*
X40442992Y-46259255D01*
X40493528Y-46425851D01*
X40575595Y-46579387D01*
X40686038Y-46713962D01*
X40820613Y-46824405D01*
X40974149Y-46906472D01*
X41140745Y-46957008D01*
X41313999Y-46974072D01*
X43014001Y-46974072D01*
X43187255Y-46957008D01*
X43353851Y-46906472D01*
X43507387Y-46824405D01*
X43641962Y-46713962D01*
X43752405Y-46579387D01*
X43834472Y-46425851D01*
X43885008Y-46259255D01*
X43902072Y-46086001D01*
X43902072Y-44845999D01*
X43885008Y-44672745D01*
X43834472Y-44506149D01*
X43752405Y-44352613D01*
X43641962Y-44218038D01*
X43507387Y-44107595D01*
X43398686Y-44049493D01*
X43554536Y-43896494D01*
X43721571Y-43651437D01*
X43837588Y-43378502D01*
X43855302Y-43286031D01*
X43734246Y-43053000D01*
X42291000Y-43053000D01*
X42291000Y-43073000D01*
X42037000Y-43073000D01*
X42037000Y-43053000D01*
X40593754Y-43053000D01*
X40472698Y-43286031D01*
X40490412Y-43378502D01*
X40606429Y-43651437D01*
X40773464Y-43896494D01*
X40929314Y-44049493D01*
X40820613Y-44107595D01*
X40686038Y-44218038D01*
X40575595Y-44352613D01*
X40493528Y-44506149D01*
X40442992Y-44672745D01*
X40425928Y-44845999D01*
X38760000Y-44845999D01*
X38760000Y-40746031D01*
X40472698Y-40746031D01*
X40490412Y-40838502D01*
X40606429Y-41111437D01*
X40773464Y-41356494D01*
X40985097Y-41564256D01*
X41125184Y-41656000D01*
X40985097Y-41747744D01*
X40773464Y-41955506D01*
X40606429Y-42200563D01*
X40490412Y-42473498D01*
X40472698Y-42565969D01*
X40593754Y-42799000D01*
X42037000Y-42799000D01*
X42037000Y-40513000D01*
X42291000Y-40513000D01*
X42291000Y-42799000D01*
X43734246Y-42799000D01*
X43855302Y-42565969D01*
X43837588Y-42473498D01*
X43721571Y-42200563D01*
X43554536Y-41955506D01*
X43342903Y-41747744D01*
X43202816Y-41656000D01*
X43342903Y-41564256D01*
X43554536Y-41356494D01*
X43721571Y-41111437D01*
X43837588Y-40838502D01*
X43855302Y-40746031D01*
X43734246Y-40513000D01*
X42291000Y-40513000D01*
X42037000Y-40513000D01*
X40593754Y-40513000D01*
X40472698Y-40746031D01*
X38760000Y-40746031D01*
X38760000Y-37846000D01*
X40421718Y-37846000D01*
X40450776Y-38141032D01*
X40536834Y-38424725D01*
X40676583Y-38686179D01*
X40864655Y-38915345D01*
X41093821Y-39103417D01*
X41121669Y-39118302D01*
X40985097Y-39207744D01*
X40773464Y-39415506D01*
X40606429Y-39660563D01*
X40490412Y-39933498D01*
X40472698Y-40025969D01*
X40593754Y-40259000D01*
X42037000Y-40259000D01*
X42037000Y-40239000D01*
X42291000Y-40239000D01*
X42291000Y-40259000D01*
X43734246Y-40259000D01*
X43855302Y-40025969D01*
X43837588Y-39933498D01*
X43721571Y-39660563D01*
X43554536Y-39415506D01*
X43342903Y-39207744D01*
X43206331Y-39118302D01*
X43234179Y-39103417D01*
X43463345Y-38915345D01*
X43651417Y-38686179D01*
X43791166Y-38424725D01*
X43877224Y-38141032D01*
X43906282Y-37846000D01*
X43877224Y-37550968D01*
X43791166Y-37267275D01*
X43651417Y-37005821D01*
X43463345Y-36776655D01*
X43234179Y-36588583D01*
X42972725Y-36448834D01*
X42689032Y-36362776D01*
X42467936Y-36341000D01*
X41860064Y-36341000D01*
X41638968Y-36362776D01*
X41355275Y-36448834D01*
X41093821Y-36588583D01*
X40864655Y-36776655D01*
X40676583Y-37005821D01*
X40536834Y-37267275D01*
X40450776Y-37550968D01*
X40421718Y-37846000D01*
X38760000Y-37846000D01*
X38760000Y-32918000D01*
X55076436Y-32918000D01*
X53138997Y-34855440D01*
G36*
X67630748Y-46467858D02*
G01*
X67616605Y-46482000D01*
X67630748Y-46496143D01*
X67451143Y-46675748D01*
X67437000Y-46661605D01*
X67422858Y-46675748D01*
X67243253Y-46496143D01*
X67257395Y-46482000D01*
X67243253Y-46467858D01*
X67422858Y-46288253D01*
X67437000Y-46302395D01*
X67451143Y-46288253D01*
X67630748Y-46467858D01*
G37*
X67630748Y-46467858D02*
X67616605Y-46482000D01*
X67630748Y-46496143D01*
X67451143Y-46675748D01*
X67437000Y-46661605D01*
X67422858Y-46675748D01*
X67243253Y-46496143D01*
X67257395Y-46482000D01*
X67243253Y-46467858D01*
X67422858Y-46288253D01*
X67437000Y-46302395D01*
X67451143Y-46288253D01*
X67630748Y-46467858D01*
G36*
X79246465Y-45027120D02*
G01*
X79475273Y-45180005D01*
X79546943Y-45209692D01*
X79533977Y-45214364D01*
X79418020Y-45276344D01*
X79351040Y-45516435D01*
X80137000Y-46302395D01*
X80151143Y-46288253D01*
X80330748Y-46467858D01*
X80316605Y-46482000D01*
X80330748Y-46496143D01*
X80151143Y-46675748D01*
X80137000Y-46661605D01*
X80122858Y-46675748D01*
X79943253Y-46496143D01*
X79957395Y-46482000D01*
X79171435Y-45696040D01*
X78931344Y-45763020D01*
X78869921Y-45893644D01*
X78864636Y-45878977D01*
X78802656Y-45763020D01*
X78562567Y-45696041D01*
X78678977Y-45579631D01*
X78663083Y-45563737D01*
X78682564Y-45539999D01*
X79195003Y-45027561D01*
X79223510Y-45004165D01*
X79246465Y-45027120D01*
G37*
X79246465Y-45027120D02*
X79475273Y-45180005D01*
X79546943Y-45209692D01*
X79533977Y-45214364D01*
X79418020Y-45276344D01*
X79351040Y-45516435D01*
X80137000Y-46302395D01*
X80151143Y-46288253D01*
X80330748Y-46467858D01*
X80316605Y-46482000D01*
X80330748Y-46496143D01*
X80151143Y-46675748D01*
X80137000Y-46661605D01*
X80122858Y-46675748D01*
X79943253Y-46496143D01*
X79957395Y-46482000D01*
X79171435Y-45696040D01*
X78931344Y-45763020D01*
X78869921Y-45893644D01*
X78864636Y-45878977D01*
X78802656Y-45763020D01*
X78562567Y-45696041D01*
X78678977Y-45579631D01*
X78663083Y-45563737D01*
X78682564Y-45539999D01*
X79195003Y-45027561D01*
X79223510Y-45004165D01*
X79246465Y-45027120D01*
G36*
X65090748Y-46467858D02*
G01*
X65076605Y-46482000D01*
X65090748Y-46496143D01*
X64911143Y-46675748D01*
X64897000Y-46661605D01*
X64882858Y-46675748D01*
X64703253Y-46496143D01*
X64717395Y-46482000D01*
X64703253Y-46467858D01*
X64882858Y-46288253D01*
X64897000Y-46302395D01*
X64911143Y-46288253D01*
X65090748Y-46467858D01*
G37*
X65090748Y-46467858D02*
X65076605Y-46482000D01*
X65090748Y-46496143D01*
X64911143Y-46675748D01*
X64897000Y-46661605D01*
X64882858Y-46675748D01*
X64703253Y-46496143D01*
X64717395Y-46482000D01*
X64703253Y-46467858D01*
X64882858Y-46288253D01*
X64897000Y-46302395D01*
X64911143Y-46288253D01*
X65090748Y-46467858D01*
G36*
X62550748Y-46467858D02*
G01*
X62536605Y-46482000D01*
X62550748Y-46496143D01*
X62371143Y-46675748D01*
X62357000Y-46661605D01*
X62342858Y-46675748D01*
X62163253Y-46496143D01*
X62177395Y-46482000D01*
X62163253Y-46467858D01*
X62342858Y-46288253D01*
X62357000Y-46302395D01*
X62371143Y-46288253D01*
X62550748Y-46467858D01*
G37*
X62550748Y-46467858D02*
X62536605Y-46482000D01*
X62550748Y-46496143D01*
X62371143Y-46675748D01*
X62357000Y-46661605D01*
X62342858Y-46675748D01*
X62163253Y-46496143D01*
X62177395Y-46482000D01*
X62163253Y-46467858D01*
X62342858Y-46288253D01*
X62357000Y-46302395D01*
X62371143Y-46288253D01*
X62550748Y-46467858D01*
G36*
X60010748Y-46467858D02*
G01*
X59996605Y-46482000D01*
X60010748Y-46496143D01*
X59831143Y-46675748D01*
X59817000Y-46661605D01*
X59802858Y-46675748D01*
X59623253Y-46496143D01*
X59637395Y-46482000D01*
X59623253Y-46467858D01*
X59802858Y-46288253D01*
X59817000Y-46302395D01*
X59831143Y-46288253D01*
X60010748Y-46467858D01*
G37*
X60010748Y-46467858D02*
X59996605Y-46482000D01*
X60010748Y-46496143D01*
X59831143Y-46675748D01*
X59817000Y-46661605D01*
X59802858Y-46675748D01*
X59623253Y-46496143D01*
X59637395Y-46482000D01*
X59623253Y-46467858D01*
X59802858Y-46288253D01*
X59817000Y-46302395D01*
X59831143Y-46288253D01*
X60010748Y-46467858D01*
G36*
X77790748Y-46467858D02*
G01*
X77776605Y-46482000D01*
X77790748Y-46496143D01*
X77611143Y-46675748D01*
X77597000Y-46661605D01*
X77582858Y-46675748D01*
X77403253Y-46496143D01*
X77417395Y-46482000D01*
X77403253Y-46467858D01*
X77582858Y-46288253D01*
X77597000Y-46302395D01*
X77611143Y-46288253D01*
X77790748Y-46467858D01*
G37*
X77790748Y-46467858D02*
X77776605Y-46482000D01*
X77790748Y-46496143D01*
X77611143Y-46675748D01*
X77597000Y-46661605D01*
X77582858Y-46675748D01*
X77403253Y-46496143D01*
X77417395Y-46482000D01*
X77403253Y-46467858D01*
X77582858Y-46288253D01*
X77597000Y-46302395D01*
X77611143Y-46288253D01*
X77790748Y-46467858D01*
G36*
X82870748Y-46467858D02*
G01*
X82856605Y-46482000D01*
X82870748Y-46496143D01*
X82691143Y-46675748D01*
X82677000Y-46661605D01*
X82662858Y-46675748D01*
X82483253Y-46496143D01*
X82497395Y-46482000D01*
X82483253Y-46467858D01*
X82662858Y-46288253D01*
X82677000Y-46302395D01*
X82691143Y-46288253D01*
X82870748Y-46467858D01*
G37*
X82870748Y-46467858D02*
X82856605Y-46482000D01*
X82870748Y-46496143D01*
X82691143Y-46675748D01*
X82677000Y-46661605D01*
X82662858Y-46675748D01*
X82483253Y-46496143D01*
X82497395Y-46482000D01*
X82483253Y-46467858D01*
X82662858Y-46288253D01*
X82677000Y-46302395D01*
X82691143Y-46288253D01*
X82870748Y-46467858D01*
G36*
X70170748Y-46467858D02*
G01*
X70156605Y-46482000D01*
X70170748Y-46496143D01*
X69991143Y-46675748D01*
X69977000Y-46661605D01*
X69962858Y-46675748D01*
X69783253Y-46496143D01*
X69797395Y-46482000D01*
X69783253Y-46467858D01*
X69962858Y-46288253D01*
X69977000Y-46302395D01*
X69991143Y-46288253D01*
X70170748Y-46467858D01*
G37*
X70170748Y-46467858D02*
X70156605Y-46482000D01*
X70170748Y-46496143D01*
X69991143Y-46675748D01*
X69977000Y-46661605D01*
X69962858Y-46675748D01*
X69783253Y-46496143D01*
X69797395Y-46482000D01*
X69783253Y-46467858D01*
X69962858Y-46288253D01*
X69977000Y-46302395D01*
X69991143Y-46288253D01*
X70170748Y-46467858D01*
G36*
X72710748Y-46467858D02*
G01*
X72696605Y-46482000D01*
X72710748Y-46496143D01*
X72531143Y-46675748D01*
X72517000Y-46661605D01*
X72502858Y-46675748D01*
X72323253Y-46496143D01*
X72337395Y-46482000D01*
X72323253Y-46467858D01*
X72502858Y-46288253D01*
X72517000Y-46302395D01*
X72531143Y-46288253D01*
X72710748Y-46467858D01*
G37*
X72710748Y-46467858D02*
X72696605Y-46482000D01*
X72710748Y-46496143D01*
X72531143Y-46675748D01*
X72517000Y-46661605D01*
X72502858Y-46675748D01*
X72323253Y-46496143D01*
X72337395Y-46482000D01*
X72323253Y-46467858D01*
X72502858Y-46288253D01*
X72517000Y-46302395D01*
X72531143Y-46288253D01*
X72710748Y-46467858D01*
G36*
X85410748Y-46467858D02*
G01*
X85396605Y-46482000D01*
X85410748Y-46496143D01*
X85231143Y-46675748D01*
X85217000Y-46661605D01*
X85202858Y-46675748D01*
X85023253Y-46496143D01*
X85037395Y-46482000D01*
X85023253Y-46467858D01*
X85202858Y-46288253D01*
X85217000Y-46302395D01*
X85231143Y-46288253D01*
X85410748Y-46467858D01*
G37*
X85410748Y-46467858D02*
X85396605Y-46482000D01*
X85410748Y-46496143D01*
X85231143Y-46675748D01*
X85217000Y-46661605D01*
X85202858Y-46675748D01*
X85023253Y-46496143D01*
X85037395Y-46482000D01*
X85023253Y-46467858D01*
X85202858Y-46288253D01*
X85217000Y-46302395D01*
X85231143Y-46288253D01*
X85410748Y-46467858D01*
G36*
X87950748Y-46467858D02*
G01*
X87936605Y-46482000D01*
X87950748Y-46496143D01*
X87771143Y-46675748D01*
X87757000Y-46661605D01*
X87742858Y-46675748D01*
X87563253Y-46496143D01*
X87577395Y-46482000D01*
X87563253Y-46467858D01*
X87742858Y-46288253D01*
X87757000Y-46302395D01*
X87771143Y-46288253D01*
X87950748Y-46467858D01*
G37*
X87950748Y-46467858D02*
X87936605Y-46482000D01*
X87950748Y-46496143D01*
X87771143Y-46675748D01*
X87757000Y-46661605D01*
X87742858Y-46675748D01*
X87563253Y-46496143D01*
X87577395Y-46482000D01*
X87563253Y-46467858D01*
X87742858Y-46288253D01*
X87757000Y-46302395D01*
X87771143Y-46288253D01*
X87950748Y-46467858D01*
G36*
X75250748Y-46467858D02*
G01*
X75236605Y-46482000D01*
X75250748Y-46496143D01*
X75071143Y-46675748D01*
X75057000Y-46661605D01*
X75042858Y-46675748D01*
X74863253Y-46496143D01*
X74877395Y-46482000D01*
X74863253Y-46467858D01*
X75042858Y-46288253D01*
X75057000Y-46302395D01*
X75071143Y-46288253D01*
X75250748Y-46467858D01*
G37*
X75250748Y-46467858D02*
X75236605Y-46482000D01*
X75250748Y-46496143D01*
X75071143Y-46675748D01*
X75057000Y-46661605D01*
X75042858Y-46675748D01*
X74863253Y-46496143D01*
X74877395Y-46482000D01*
X74863253Y-46467858D01*
X75042858Y-46288253D01*
X75057000Y-46302395D01*
X75071143Y-46288253D01*
X75250748Y-46467858D01*
G36*
X65090748Y-35926858D02*
G01*
X65076605Y-35941000D01*
X65090748Y-35955143D01*
X64911143Y-36134748D01*
X64897000Y-36120605D01*
X64111040Y-36906565D01*
X64178020Y-37146656D01*
X64313760Y-37210485D01*
X64235273Y-37242995D01*
X64006465Y-37395880D01*
X63811880Y-37590465D01*
X63658995Y-37819273D01*
X63627000Y-37896515D01*
X63595005Y-37819273D01*
X63442120Y-37590465D01*
X63247535Y-37395880D01*
X63018727Y-37242995D01*
X62947057Y-37213308D01*
X62960023Y-37208636D01*
X63075980Y-37146656D01*
X63142960Y-36906565D01*
X62357000Y-36120605D01*
X62342858Y-36134748D01*
X62163253Y-35955143D01*
X62177395Y-35941000D01*
X62163253Y-35926858D01*
X62342858Y-35747253D01*
X62357000Y-35761395D01*
X62371143Y-35747253D01*
X62550748Y-35926858D01*
X62536605Y-35941000D01*
X63322565Y-36726960D01*
X63562656Y-36659980D01*
X63624079Y-36529356D01*
X63629364Y-36544023D01*
X63691344Y-36659980D01*
X63931435Y-36726960D01*
X64717395Y-35941000D01*
X64703253Y-35926858D01*
X64882858Y-35747253D01*
X64897000Y-35761395D01*
X64911143Y-35747253D01*
X65090748Y-35926858D01*
G37*
X65090748Y-35926858D02*
X65076605Y-35941000D01*
X65090748Y-35955143D01*
X64911143Y-36134748D01*
X64897000Y-36120605D01*
X64111040Y-36906565D01*
X64178020Y-37146656D01*
X64313760Y-37210485D01*
X64235273Y-37242995D01*
X64006465Y-37395880D01*
X63811880Y-37590465D01*
X63658995Y-37819273D01*
X63627000Y-37896515D01*
X63595005Y-37819273D01*
X63442120Y-37590465D01*
X63247535Y-37395880D01*
X63018727Y-37242995D01*
X62947057Y-37213308D01*
X62960023Y-37208636D01*
X63075980Y-37146656D01*
X63142960Y-36906565D01*
X62357000Y-36120605D01*
X62342858Y-36134748D01*
X62163253Y-35955143D01*
X62177395Y-35941000D01*
X62163253Y-35926858D01*
X62342858Y-35747253D01*
X62357000Y-35761395D01*
X62371143Y-35747253D01*
X62550748Y-35926858D01*
X62536605Y-35941000D01*
X63322565Y-36726960D01*
X63562656Y-36659980D01*
X63624079Y-36529356D01*
X63629364Y-36544023D01*
X63691344Y-36659980D01*
X63931435Y-36726960D01*
X64717395Y-35941000D01*
X64703253Y-35926858D01*
X64882858Y-35747253D01*
X64897000Y-35761395D01*
X64911143Y-35747253D01*
X65090748Y-35926858D01*
G36*
X72710748Y-35926858D02*
G01*
X72696605Y-35941000D01*
X72710748Y-35955143D01*
X72531143Y-36134748D01*
X72517000Y-36120605D01*
X72502858Y-36134748D01*
X72323253Y-35955143D01*
X72337395Y-35941000D01*
X72323253Y-35926858D01*
X72502858Y-35747253D01*
X72517000Y-35761395D01*
X72531143Y-35747253D01*
X72710748Y-35926858D01*
G37*
X72710748Y-35926858D02*
X72696605Y-35941000D01*
X72710748Y-35955143D01*
X72531143Y-36134748D01*
X72517000Y-36120605D01*
X72502858Y-36134748D01*
X72323253Y-35955143D01*
X72337395Y-35941000D01*
X72323253Y-35926858D01*
X72502858Y-35747253D01*
X72517000Y-35761395D01*
X72531143Y-35747253D01*
X72710748Y-35926858D01*
G36*
X77790748Y-35926858D02*
G01*
X77776605Y-35941000D01*
X77790748Y-35955143D01*
X77611143Y-36134748D01*
X77597000Y-36120605D01*
X77582858Y-36134748D01*
X77403253Y-35955143D01*
X77417395Y-35941000D01*
X77403253Y-35926858D01*
X77582858Y-35747253D01*
X77597000Y-35761395D01*
X77611143Y-35747253D01*
X77790748Y-35926858D01*
G37*
X77790748Y-35926858D02*
X77776605Y-35941000D01*
X77790748Y-35955143D01*
X77611143Y-36134748D01*
X77597000Y-36120605D01*
X77582858Y-36134748D01*
X77403253Y-35955143D01*
X77417395Y-35941000D01*
X77403253Y-35926858D01*
X77582858Y-35747253D01*
X77597000Y-35761395D01*
X77611143Y-35747253D01*
X77790748Y-35926858D01*
G36*
X75250748Y-35926858D02*
G01*
X75236605Y-35941000D01*
X75250748Y-35955143D01*
X75071143Y-36134748D01*
X75057000Y-36120605D01*
X75042858Y-36134748D01*
X74863253Y-35955143D01*
X74877395Y-35941000D01*
X74863253Y-35926858D01*
X75042858Y-35747253D01*
X75057000Y-35761395D01*
X75071143Y-35747253D01*
X75250748Y-35926858D01*
G37*
X75250748Y-35926858D02*
X75236605Y-35941000D01*
X75250748Y-35955143D01*
X75071143Y-36134748D01*
X75057000Y-36120605D01*
X75042858Y-36134748D01*
X74863253Y-35955143D01*
X74877395Y-35941000D01*
X74863253Y-35926858D01*
X75042858Y-35747253D01*
X75057000Y-35761395D01*
X75071143Y-35747253D01*
X75250748Y-35926858D01*
G36*
X60010748Y-35926858D02*
G01*
X59996605Y-35941000D01*
X60010748Y-35955143D01*
X59831143Y-36134748D01*
X59817000Y-36120605D01*
X59802858Y-36134748D01*
X59623253Y-35955143D01*
X59637395Y-35941000D01*
X59623253Y-35926858D01*
X59802858Y-35747253D01*
X59817000Y-35761395D01*
X59831143Y-35747253D01*
X60010748Y-35926858D01*
G37*
X60010748Y-35926858D02*
X59996605Y-35941000D01*
X60010748Y-35955143D01*
X59831143Y-36134748D01*
X59817000Y-36120605D01*
X59802858Y-36134748D01*
X59623253Y-35955143D01*
X59637395Y-35941000D01*
X59623253Y-35926858D01*
X59802858Y-35747253D01*
X59817000Y-35761395D01*
X59831143Y-35747253D01*
X60010748Y-35926858D01*
G36*
X67630748Y-35926858D02*
G01*
X67616605Y-35941000D01*
X67630748Y-35955143D01*
X67451143Y-36134748D01*
X67437000Y-36120605D01*
X67422858Y-36134748D01*
X67243253Y-35955143D01*
X67257395Y-35941000D01*
X67243253Y-35926858D01*
X67422858Y-35747253D01*
X67437000Y-35761395D01*
X67451143Y-35747253D01*
X67630748Y-35926858D01*
G37*
X67630748Y-35926858D02*
X67616605Y-35941000D01*
X67630748Y-35955143D01*
X67451143Y-36134748D01*
X67437000Y-36120605D01*
X67422858Y-36134748D01*
X67243253Y-35955143D01*
X67257395Y-35941000D01*
X67243253Y-35926858D01*
X67422858Y-35747253D01*
X67437000Y-35761395D01*
X67451143Y-35747253D01*
X67630748Y-35926858D01*
G36*
X70170748Y-35926858D02*
G01*
X70156605Y-35941000D01*
X70170748Y-35955143D01*
X69991143Y-36134748D01*
X69977000Y-36120605D01*
X69962858Y-36134748D01*
X69783253Y-35955143D01*
X69797395Y-35941000D01*
X69783253Y-35926858D01*
X69962858Y-35747253D01*
X69977000Y-35761395D01*
X69991143Y-35747253D01*
X70170748Y-35926858D01*
G37*
X70170748Y-35926858D02*
X70156605Y-35941000D01*
X70170748Y-35955143D01*
X69991143Y-36134748D01*
X69977000Y-36120605D01*
X69962858Y-36134748D01*
X69783253Y-35955143D01*
X69797395Y-35941000D01*
X69783253Y-35926858D01*
X69962858Y-35747253D01*
X69977000Y-35761395D01*
X69991143Y-35747253D01*
X70170748Y-35926858D01*
M02*
